PathFileType	4	(X/Y/Z)	c:/Users/goper/Files/vsCode/490R/osim_files/A04/A04_Slow_05.trc
DataRate	CameraRate	NumFrames	NumMarkers	Units                	OrigDataRate	OrigDataStartFrame	OrigNumFrames
120.00	120.00	4	36	mm	120.0	1138	1300
                Frame#	Time	LPSIS			LASIS			LTH1			LTH2			LTH3			LTH4			LLFE			LMFE			LSH1			LSH2			LSH3			LSH4			LLMAL			LMMAL			LCAL			LMTP5			LTOE			LMTP1			RPSIS			RASIS			RTH1			RTH2			RTH3			RTH4			RLFE			RMFE			RSH1			RSH2			RSH3			RSH4			RLMAL			RMMAL			RCAL			RMTP1			RTOE			RMTP5		
		X1	Y1	Z1	X2	Y2	Z2	X3	Y3	Z3	X4	Y4	Z4	X5	Y5	Z5	X6	Y6	Z6	X7	Y7	Z7	X8	Y8	Z8	X9	Y9	Z9	X10	Y10	Z10	X11	Y11	Z11	X12	Y12	Z12	X13	Y13	Z13	X14	Y14	Z14	X15	Y15	Z15	X16	Y16	Z16	X17	Y17	Z17	X18	Y18	Z18	X19	Y19	Z19	X20	Y20	Z20	X21	Y21	Z21	X22	Y22	Z22	X23	Y23	Z23	X24	Y24	Z24	X25	Y25	Z25	X26	Y26	Z26	X27	Y27	Z27	X28	Y28	Z28	X29	Y29	Z29	X30	Y30	Z30	X31	Y31	Z31	X32	Y32	Z32	X33	Y33	Z33	X34	Y34	Z34	X35	Y35	Z35	X36	Y36	Z36

1138	9.47500	-3179.68164	1062.52991	385.24493	-3402.07837	1024.73096	473.52618	-3325.72485	702.39410	493.41690	-3329.51099	657.96283	489.41241	-3387.08521	706.11621	490.41089	-3383.29565	661.40222	488.18826	-3353.11353	534.19788	478.67297	-3377.30103	541.63708	340.56076	-3327.17480	431.54578	475.57217	-3334.91113	389.08728	470.59885	-3387.15698	436.96420	466.72781	-3386.61621	393.64124	462.63156	-3327.91870	111.41244	414.93155	-3353.36597	117.54906	332.59842	-3267.60645	71.36578	355.88876	-3469.10889	66.38288	455.34137	-3520.40991	83.97761	397.43661	-3504.90771	68.35583	351.51575	-3180.80518	1047.42102	279.74606	0.00000	0.00000	0.00000	0.00000	0.00000	0.00000	0.00000	0.00000	0.00000	-3467.07690	751.49316	135.29739	0.00000	0.00000	0.00000	0.00000	0.00000	0.00000	-3531.43262	565.36975	275.94202	-3356.94043	416.28394	159.18675	0.00000	0.00000	0.00000	0.00000	0.00000	0.00000	-3358.51245	347.45929	157.81079	0.00000	0.00000	0.00000	-3253.72437	202.54474	292.48575	-3140.11450	208.33412	238.68138	-3323.79932	81.24123	269.45547	-3355.35254	88.19817	223.79558	-3311.20532	84.03457	151.49286
1139	9.48333	-3185.51294	1063.29932	385.46130	-3407.94092	1024.58337	473.81992	-3329.29883	704.16681	493.18277	-3332.83032	658.28992	489.06512	-3390.80542	706.01178	490.19458	-3386.72778	661.28748	487.95282	-3358.07202	535.49561	479.01126	-3379.68823	541.55835	340.07709	-3328.99536	431.84317	475.12604	-3336.58276	389.33997	470.23471	-3388.99658	436.92487	466.33603	-3388.36353	393.65396	462.30945	-3328.01636	111.48983	414.87851	-3353.44385	117.53622	332.51193	-3267.78149	71.35967	355.88901	-3469.10474	66.32735	455.27106	-3520.46118	83.87805	397.40356	-3504.94751	68.25926	351.47510	-3186.57324	1048.58655	279.87772	0.00000	0.00000	0.00000	0.00000	0.00000	0.00000	-3440.24414	692.34973	138.79121	-3477.16699	755.55804	135.23375	0.00000	0.00000	0.00000	0.00000	0.00000	0.00000	-3543.65356	570.08081	275.88574	0.00000	0.00000	0.00000	-3479.59497	359.09579	179.23285	0.00000	0.00000	0.00000	0.00000	0.00000	0.00000	0.00000	0.00000	0.00000	-3279.08667	197.68214	292.42801	-3164.92700	199.45477	238.60196	-3354.25049	78.61131	269.48145	-3384.67212	87.14339	223.64120	-3340.59351	81.36281	151.28816
1140	9.49167	-3191.29858	1063.97046	385.69485	-3413.73242	1024.30188	474.10419	-3334.04663	705.37708	492.98080	-3336.22412	658.49744	488.75104	0.00000	0.00000	0.00000	-3389.99902	661.05487	487.68399	-3357.78467	534.47137	477.75589	-3382.24414	541.54651	339.64429	-3330.85693	432.10861	474.76492	-3338.20361	389.55658	469.89191	-3390.90405	436.94434	465.97470	-3390.05566	393.65250	461.96213	-3328.01147	111.54816	414.77579	-3353.77783	117.85947	332.61441	-3267.75195	71.40556	355.85745	-3469.14551	66.36635	455.24527	-3520.50439	83.82645	397.37262	-3504.95654	68.17556	351.43216	-3192.41406	1049.38562	280.14563	0.00000	0.00000	0.00000	0.00000	0.00000	0.00000	-3460.00073	692.49622	138.20911	-3486.81152	759.32733	135.17404	0.00000	0.00000	0.00000	0.00000	0.00000	0.00000	-3555.15430	574.69873	275.89243	-3391.98364	413.15161	158.82590	0.00000	0.00000	0.00000	0.00000	0.00000	0.00000	-3404.34619	343.30057	159.39006	0.00000	0.00000	0.00000	-3304.55859	192.82259	292.31995	-3188.02417	191.23001	238.22090	-3385.80493	78.34657	270.27100	-3416.28809	87.32241	224.53108	-3370.27368	78.81729	151.23375
1141	9.50000	-3197.25000	1064.59485	385.87277	-3419.58545	1023.90912	474.32391	-3337.94873	705.70337	492.67419	-3339.71069	658.78363	488.42929	0.00000	0.00000	0.00000	-3393.47070	660.85724	487.33148	-3360.36255	534.62018	477.32050	-3384.73999	541.39301	339.20432	-3332.92627	432.40552	474.48587	-3341.56519	389.67538	470.89090	-3392.93042	436.92114	465.62735	-3393.72925	394.36746	462.33014	-3328.15112	111.63962	414.75244	-3353.71313	117.79560	332.63858	-3267.74634	71.47124	355.81030	-3469.17578	66.34697	455.19788	-3520.53296	83.72087	397.33383	-3504.98901	68.06031	351.39890	-3198.31274	1050.25525	280.26453	0.00000	0.00000	0.00000	0.00000	0.00000	0.00000	-3468.32739	696.57855	136.15100	-3496.16870	762.79712	134.87903	0.00000	0.00000	0.00000	0.00000	0.00000	0.00000	-3565.72729	579.03796	275.81677	0.00000	0.00000	0.00000	0.00000	0.00000	0.00000	-3454.57910	379.95334	155.76701	-3424.21045	342.24750	159.27319	-3299.47168	194.55888	160.90697	-3330.26733	187.57054	292.63168	-3215.09155	181.60631	238.06964	-3413.42554	75.50636	269.23373	-3444.04736	85.94442	223.65378	-3400.51538	76.65083	151.23799
